<svg xmlns="http://www.w3.org/2000/svg" viewBox="0 0 960 360" role="img" aria-label="">
  <defs>
    <linearGradient id="sky" x1="0" x2="1" y1="0" y2="1">
      <stop offset="0" stop-color="#fffdf8"/>
      <stop offset="0.55" stop-color="#edf5f0"/>
      <stop offset="1" stop-color="#e3efe9"/>
    </linearGradient>
    <linearGradient id="floor" x1="0" x2="1" y1="0" y2="0">
      <stop offset="0" stop-color="#d9e8df"/>
      <stop offset="0.5" stop-color="#f4f7f4"/>
      <stop offset="1" stop-color="#d9e8df"/>
    </linearGradient>
    <radialGradient id="ember" cx="50%" cy="50%" r="55%">
      <stop offset="0" stop-color="#f4c66d"/>
      <stop offset="0.42" stop-color="#d9833a"/>
      <stop offset="1" stop-color="#b24846" stop-opacity="0"/>
    </radialGradient>
    <radialGradient id="watchGlow" cx="50%" cy="50%" r="55%">
      <stop offset="0" stop-color="#8bd5c8"/>
      <stop offset="0.46" stop-color="#168276" stop-opacity="0.58"/>
      <stop offset="1" stop-color="#168276" stop-opacity="0"/>
    </radialGradient>
    <filter id="softBlur" x="-20%" y="-20%" width="140%" height="140%">
      <feGaussianBlur stdDeviation="4"/>
    </filter>
  </defs>

  <rect width="960" height="360" fill="url(#sky)"/>
  <path d="M0 248 C160 214 292 215 420 242 C554 270 698 260 960 222 L960 360 L0 360 Z" fill="url(#floor)"/>

  <g fill="none" stroke-linecap="round" stroke-linejoin="round">
    <path d="M112 244 L238 94 L362 244" stroke="#276f9b" stroke-opacity="0.22" stroke-width="9"/>
    <path d="M232 244 L430 70 L620 244" stroke="#168276" stroke-opacity="0.2" stroke-width="11"/>
    <path d="M510 244 L704 94 L858 244" stroke="#b07118" stroke-opacity="0.2" stroke-width="9"/>
    <path d="M180 244 H820" stroke="#151d1b" stroke-opacity="0.08" stroke-width="8"/>
    <path d="M250 205 H748" stroke="#151d1b" stroke-opacity="0.06" stroke-width="5"/>
    <path d="M342 164 H650" stroke="#151d1b" stroke-opacity="0.05" stroke-width="4"/>
  </g>

  <g opacity="0.68">
    <ellipse cx="480" cy="252" rx="254" ry="34" fill="#168276" opacity="0.08"/>
    <ellipse cx="480" cy="252" rx="178" ry="22" fill="#276f9b" opacity="0.07"/>
    <ellipse cx="480" cy="252" rx="92" ry="12" fill="#b07118" opacity="0.08"/>
  </g>

  <g fill="none" stroke="#168276" stroke-opacity="0.28">
    <path d="M234 252 C326 206 418 206 510 252 C604 298 702 296 794 248" stroke-width="3"/>
    <path d="M204 276 C320 236 420 234 526 274 C634 314 740 310 846 266" stroke-width="2"/>
  </g>

  <g transform="translate(678 204)">
    <ellipse cx="0" cy="0" rx="82" ry="58" fill="url(#watchGlow)" filter="url(#softBlur)" opacity="0.62"/>
    <rect x="-24" y="-32" width="48" height="64" rx="14" fill="#0e1514" opacity="0.82"/>
    <rect x="-17" y="-24" width="34" height="48" rx="10" fill="#eaf1ed"/>
    <path d="M-9 0 L-2 8 L12 -12" fill="none" stroke="#168276" stroke-width="5" stroke-linecap="round" stroke-linejoin="round"/>
  </g>

  <g transform="translate(318 232)">
    <ellipse cx="0" cy="0" rx="72" ry="48" fill="url(#ember)" filter="url(#softBlur)" opacity="0.62"/>
    <path d="M-26 24 L30 -24" stroke="#6f4e2f" stroke-width="7" stroke-linecap="round"/>
    <path d="M-30 -20 L34 24" stroke="#6f4e2f" stroke-width="7" stroke-linecap="round"/>
    <path d="M0 12 C-16 -4 -4 -22 6 -40 C16 -20 28 -6 0 12 Z" fill="#d9833a"/>
    <path d="M4 8 C-6 -4 2 -14 10 -26 C18 -12 20 -2 4 8 Z" fill="#f4c66d"/>
  </g>

  <g fill="#151d1b" opacity="0.06">
    <circle cx="154" cy="132" r="5"/>
    <circle cx="810" cy="126" r="4"/>
    <circle cx="562" cy="96" r="3"/>
    <circle cx="414" cy="116" r="4"/>
  </g>
</svg>
